# xmcd CD database file
#
# Track frame offsets:
#	150
#	13862
#	27690
#	38712
#	59740
#	69067
#	97545
#	130690
#	148667
#	164712
#	192152
#	211122
#	225215
#	239392
#	253450
#	270405
#	285375
#
# Disc length: 4153 seconds
#
# Revision: 2
# Processed by: cddbd v1.5.2PL0 Copyright (c) Steve Scherf et al.
# Submitted via: CDex 1.51
#
DISCID=eb103711
DTITLE=Various Artist - The Festival Tapes 1977 and Tellulive 1979
DYEAR=1992
DGENRE=Bluegrass
TTITLE0=Bryan Bowers - Blackberry Blossom
TTITLE1=John Hartford - Waugh Paugh
TTITLE2=New Grass Revival and John Hartford - Goin' Back to Old Kentucky
TTITLE3=Byron Berline and Sundance - Fiddler's Dream
TTITLE4=Byron Berline and Vince Gill - Birmingham Fling
TTITLE5=John Hartford and New Grass Revival - Nobody Eats at Linebaugh's Anymore
TTITLE6=Peter Rowan - Land of the Navajo
TTITLE7=Dan Crary - Lady's Fancy
TTITLE8=Wayne Stewart - Johnny's Garden
TTITLE9=Norman Blake - Randall Collins Done Gone
TTITLE10=New Grass Revival - Good Woman's Love
TTITLE11=Country Gazette - Honkey Cat
TTITLE12=Peter Rowan - Woman In Love
TTITLE13=Hot Rize - High on a Mountian
TTITLE14=The Doug Dillard Band Featuring Byron Berline - Jackrabbit
TTITLE15=Doc and Merle Watson - Deep River Blues
TTITLE16=Doc and Merle Watson - Black Mountian Rag
EXTD=YEAR: 1992
EXTT0=
EXTT1=
EXTT2=
EXTT3=
EXTT4=
EXTT5=
EXTT6=
EXTT7=
EXTT8=
EXTT9=
EXTT10=
EXTT11=
EXTT12=
EXTT13=
EXTT14=
EXTT15=
EXTT16=
PLAYORDER=
